<?xml version="1.0" standalone="no"?><!DOCTYPE svg PUBLIC "-//W3C//DTD SVG 1.1//EN" "http://www.w3.org/Graphics/SVG/1.1/DTD/svg11.dtd"><svg t="1526527157794" class="icon" style="" viewBox="0 0 1024 1024" version="1.1" xmlns="http://www.w3.org/2000/svg" p-id="1873" xmlns:xlink="http://www.w3.org/1999/xlink" width="200" height="200"><defs><style type="text/css"></style></defs><path d="M512 960c-247.04 0-448-201.024-448-448 0-181.312 108.096-343.616 275.392-413.504 16.192-6.656 35.072 0.832 41.856 17.216 6.784 16.32-0.896 35.008-17.216 41.792C220.672 217.408 128 356.544 128 512c0 211.776 172.224 384 384 384 155.456 0 294.592-92.672 354.496-236.032 6.784-16.384 25.728-24 41.792-17.216 16.32 6.784 24 25.472 17.216 41.792C855.616 851.904 693.312 960 512 960zM928 544 512 544C494.336 544 480 529.664 480 512L480 96C480 78.336 494.336 64 512 64c246.976 0 448 201.024 448 448C960 529.664 945.664 544 928 544zM544 480l350.656 0C879.232 293.76 730.24 144.768 544 129.344L544 480z" p-id="1874"></path></svg>