<?xml version="1.0" standalone="no"?><!DOCTYPE svg PUBLIC "-//W3C//DTD SVG 1.1//EN" "http://www.w3.org/Graphics/SVG/1.1/DTD/svg11.dtd"><svg t="1526527292658" class="icon" style="" viewBox="0 0 1024 1024" version="1.1" xmlns="http://www.w3.org/2000/svg" p-id="3512" xmlns:xlink="http://www.w3.org/1999/xlink" width="200" height="200"><defs><style type="text/css"></style></defs><path d="M851.519694 128.035048 594.33317 128.035048c-24.526603 0-44.472887 19.951401-44.472887 44.476981l0 257.238712c0 24.51944 19.946284 44.472887 44.472887 44.472887l257.186524 0c24.520463 0 44.463678-19.953448 44.463678-44.472887l0-257.238712C895.983371 147.986449 876.039133 128.035048 851.519694 128.035048z" p-id="3513"></path><path d="M429.67297 549.936007 172.487469 549.936007c-24.526603 0-44.471864 19.934005-44.471864 44.428885l0 257.237689c0 24.484647 19.945261 44.405349 44.471864 44.405349l257.186524 0c11.907191 0 23.104207-4.649903 31.522947-13.093203 8.373715-8.385994 12.963243-19.511379 12.947893-31.312146l0-257.238712C474.144834 569.868989 454.19241 549.936007 429.67297 549.936007z" p-id="3514"></path><path d="M429.673993 128.035048 172.487469 128.035048c-24.526603 0-44.471864 19.951401-44.471864 44.476981l0 257.238712c0 24.51944 19.945261 44.472887 44.471864 44.472887l257.186524 0c11.882632 0 23.073508-4.649903 31.492248-13.093203 8.398274-8.405437 12.994965-19.555381 12.980639-31.379685l0-257.238712C474.14688 147.986449 454.194456 128.035048 429.673993 128.035048zM426.39225 426.418856 175.812191 426.418856 175.812191 175.848007 426.39225 175.848007 426.39225 426.418856z" p-id="3515"></path><path d="M851.519694 549.936007 594.33317 549.936007c-24.526603 0-44.472887 19.934005-44.472887 44.428885l0 257.237689c0 24.484647 19.946284 44.405349 44.472887 44.405349l257.186524 0c24.520463 0 44.463678-19.921725 44.463678-44.405349l0-257.238712C895.983371 569.868989 876.039133 549.936007 851.519694 549.936007z" p-id="3516"></path></svg>