<?xml version="1.0" standalone="no"?><!DOCTYPE svg PUBLIC "-//W3C//DTD SVG 1.1//EN" "http://www.w3.org/Graphics/SVG/1.1/DTD/svg11.dtd"><svg t="1527562305296" class="icon" style="" viewBox="0 0 1024 1024" version="1.1" xmlns="http://www.w3.org/2000/svg" p-id="3012" xmlns:xlink="http://www.w3.org/1999/xlink" width="64" height="64"><defs><style type="text/css"></style></defs><path d="M512 0C228.663652 0 0 228.841739 0 512S228.663652 1024 512 1024 1024 795.336348 1024 512 795.336348 0 512 0z m273.185391 476.382609c0 27.38087-20.48 47.816348-47.816348 47.816348h-177.552695v95.677217h177.552695c27.38087 0 47.816348 20.48 47.816348 47.816348 0 27.38087-20.48 47.816348-47.816348 47.816348h-177.552695v81.92c0 27.336348-20.48 47.816348-47.816348 47.816347-27.336348 0-47.816348-20.48-47.816348-47.816347v-78.803479H286.809043c-23.908174-3.428174-47.86087-23.908174-47.860869-51.289043 0-27.336348 20.48-47.816348 47.860869-47.816348h177.552696v-95.632696H286.809043c-23.908174 0-47.86087-20.48-47.860869-47.860869 0-27.336348 20.48-47.816348 47.860869-47.816348h153.733566L297.093565 285.072696c-17.051826-17.051826-17.051826-47.816348 0-68.296348 17.007304-17.051826 47.816348-17.051826 68.296348 0L512 363.386435l146.610087-146.610087c17.051826-17.051826 47.816348-17.051826 68.296348 0 17.051826 17.051826 17.051826 47.816348 0 68.296348l-143.315478 143.315478h153.778086a46.925913 46.925913 0 0 1 47.816348 47.994435z" p-id="3013"></path></svg>